<?xml version="1.0" standalone="no"?><!DOCTYPE svg PUBLIC "-//W3C//DTD SVG 1.1//EN" "http://www.w3.org/Graphics/SVG/1.1/DTD/svg11.dtd"><svg t="1669951402945" class="icon" viewBox="0 0 1024 1024" version="1.1" xmlns="http://www.w3.org/2000/svg" p-id="5400" xmlns:xlink="http://www.w3.org/1999/xlink" width="200" height="200"><path d="M220.85 226.26s-17.68-53.03 0-75.76c53.03-12.63 68.18 14.65 118.69 55.31s145.99 91.16 167.69 159.34 89.89 199.5 117.67 222.23S753.68 779.3 728.43 852.53c-32.83 45.46-78.28 80.26-202.02 70.43-123.74-9.83-242.43-113.36-277.78-138.62-35.35-25.25-111.11-95.96-116.16-154.04s-7.58-106.22-15.15-132.66-25.25-76.94-20.2-97.15c5.04-20.18 30.29-151.5 123.73-174.23zM372.36 110.1s-66.86-13.68-78.28 17.68c-11.42 31.36-10.1 45.46 63.13 55.56 73.23 10.1 129.81 53.87 184.35 124.58s87.54 210.44 112.8 250.85c25.25 40.4 129.63 152.36 101.85 223.07-27.78 70.71-15.15 73.23 20.2 55.56 35.35-17.68 154.04-111.11 154.04-255.05s-42.93-256.12-116.16-326.29-219.7-179.68-290.41-148.93-133.84 25.7-151.52 2.97zM216.99 539.21c-4.61-10.55-20.42-6.94-19.96 4.56 1.21 30.51 5.42 66.79 17.85 83.36 22.11 29.48 111.83 130.04 122.35 141.81 0.67 0.75 1.44 1.4 2.3 1.92L463 846.85c1.64 1.01 3.53 1.55 5.46 1.55h44.93c11.1 0 14.5-15.05 4.48-19.82l-161.61-76.96c-1.55-0.74-2.89-1.85-3.91-3.23L244.94 602.62c-0.46-0.63-0.85-1.3-1.16-2.01l-26.79-61.4z" p-id="5401"></path></svg>